# https://github.com/mikedh/trimesh

o node
v 0.00000000 0.13857633 0.27510997
v 0.00000000 0.10142367 0.38889003
v 0.00000000 0.14389003 0.28557633
v -0.00415000 0.14283296 0.28523117
v -0.00718801 0.13994501 0.28428817
v -0.00830000 0.13600000 0.28300000
v -0.00718801 0.13205499 0.28171183
v -0.00415000 0.12916704 0.28076883
v -0.00000000 0.12810997 0.28042367
v 0.00415000 0.12916704 0.28076883
v 0.00718801 0.13205499 0.28171183
v 0.00830000 0.13600000 0.28300000
v 0.00718801 0.13994501 0.28428817
v 0.00415000 0.14283296 0.28523117
v 0.00000000 0.11189003 0.38357633
v -0.00415000 0.11083296 0.38323117
v -0.00718801 0.10794501 0.38228817
v -0.00830000 0.10400000 0.38100000
v -0.00718801 0.10005499 0.37971183
v -0.00415000 0.09716704 0.37876883
v -0.00000000 0.09610997 0.37842367
v 0.00415000 0.09716704 0.37876883
v 0.00718801 0.10005499 0.37971183
v 0.00830000 0.10400000 0.38100000
v 0.00718801 0.10794501 0.38228817
v 0.00415000 0.11083296 0.38323117
v 0.00000000 0.11076871 0.37619640
v 0.00000000 0.03523129 0.42980360
v 0.00000000 0.10880360 0.38776871
v -0.00415000 0.10816004 0.38686187
v -0.00718801 0.10640180 0.38438435
v -0.00830000 0.10400000 0.38100000
v -0.00718801 0.10159820 0.37761565
v -0.00415000 0.09983996 0.37513813
v -0.00000000 0.09919640 0.37423129
v 0.00415000 0.09983996 0.37513813
v 0.00718801 0.10159820 0.37761565
v 0.00830000 0.10400000 0.38100000
v 0.00718801 0.10640180 0.38438435
v 0.00415000 0.10816004 0.38686187
v 0.00000000 0.04680360 0.43176871
v -0.00415000 0.04616004 0.43086187
v -0.00718801 0.04440180 0.42838435
v -0.00830000 0.04200000 0.42500000
v -0.00718801 0.03959820 0.42161565
v -0.00415000 0.03783996 0.41913813
v -0.00000000 0.03719640 0.41823129
v 0.00415000 0.03783996 0.41913813
v 0.00718801 0.03959820 0.42161565
v 0.00830000 0.04200000 0.42500000
v 0.00718801 0.04440180 0.42838435
v 0.00415000 0.04616004 0.43086187
v 0.00000000 -0.13857633 0.27510997
v 0.00000000 -0.10142367 0.38889003
v 0.00000000 -0.12810997 0.28042367
v -0.00415000 -0.12916704 0.28076883
v -0.00718801 -0.13205499 0.28171183
v -0.00830000 -0.13600000 0.28300000
v -0.00718801 -0.13994501 0.28428817
v -0.00415000 -0.14283296 0.28523117
v -0.00000000 -0.14389003 0.28557633
v 0.00415000 -0.14283296 0.28523117
v 0.00718801 -0.13994501 0.28428817
v 0.00830000 -0.13600000 0.28300000
v 0.00718801 -0.13205499 0.28171183
v 0.00415000 -0.12916704 0.28076883
v 0.00000000 -0.09610997 0.37842367
v -0.00415000 -0.09716704 0.37876883
v -0.00718801 -0.10005499 0.37971183
v -0.00830000 -0.10400000 0.38100000
v -0.00718801 -0.10794501 0.38228817
v -0.00415000 -0.11083296 0.38323117
v -0.00000000 -0.11189003 0.38357633
v 0.00415000 -0.11083296 0.38323117
v 0.00718801 -0.10794501 0.38228817
v 0.00830000 -0.10400000 0.38100000
v 0.00718801 -0.10005499 0.37971183
v 0.00415000 -0.09716704 0.37876883
v 0.00000000 -0.11076871 0.37619640
v 0.00000000 -0.03523129 0.42980360
v 0.00000000 -0.09919640 0.37423129
v -0.00415000 -0.09983996 0.37513813
v -0.00718801 -0.10159820 0.37761565
v -0.00830000 -0.10400000 0.38100000
v -0.00718801 -0.10640180 0.38438435
v -0.00415000 -0.10816004 0.38686187
v -0.00000000 -0.10880360 0.38776871
v 0.00415000 -0.10816004 0.38686187
v 0.00718801 -0.10640180 0.38438435
v 0.00830000 -0.10400000 0.38100000
v 0.00718801 -0.10159820 0.37761565
v 0.00415000 -0.09983996 0.37513813
v 0.00000000 -0.03719640 0.41823129
v -0.00415000 -0.03783996 0.41913813
v -0.00718801 -0.03959820 0.42161565
v -0.00830000 -0.04200000 0.42500000
v -0.00718801 -0.04440180 0.42838435
v -0.00415000 -0.04616004 0.43086187
v -0.00000000 -0.04680360 0.43176871
v 0.00415000 -0.04616004 0.43086187
v 0.00718801 -0.04440180 0.42838435
v 0.00830000 -0.04200000 0.42500000
v 0.00718801 -0.03959820 0.42161565
v 0.00415000 -0.03783996 0.41913813
v -0.00800000 -0.04200000 0.41850000
v -0.00800000 -0.04200000 0.43750000
v -0.00800000 0.04200000 0.41850000
v -0.00800000 0.04200000 0.43750000
v 0.00800000 -0.04200000 0.41850000
v 0.00800000 -0.04200000 0.43750000
v 0.00800000 0.04200000 0.41850000
v 0.00800000 0.04200000 0.43750000
f 21 2 20
f 11 1 12
f 2 18 19
f 19 20 2
f 9 1 10
f 1 11 10
f 8 1 9
f 17 18 2
f 2 24 25
f 23 24 2
f 6 1 7
f 1 8 7
f 4 3 1
f 1 3 14
f 22 2 21
f 22 23 2
f 5 1 6
f 5 4 1
f 2 15 16
f 16 17 2
f 12 1 13
f 1 14 13
f 26 15 2
f 2 25 26
f 21 20 8
f 8 9 21
f 23 11 12
f 12 24 23
f 7 19 18
f 7 18 6
f 7 8 20
f 20 19 7
f 21 9 22
f 9 10 22
f 11 23 22
f 22 10 11
f 6 18 5
f 18 17 5
f 3 4 16
f 15 3 16
f 16 5 17
f 4 5 16
f 13 24 12
f 13 25 24
f 26 3 15
f 26 14 3
f 25 13 26
f 26 13 14
f 43 44 28
f 52 41 28
f 28 41 42
f 42 43 28
f 28 50 51
f 51 52 28
f 31 27 32
f 28 44 45
f 37 27 38
f 32 27 33
f 40 27 29
f 29 27 30
f 27 31 30
f 36 35 27
f 27 37 36
f 27 35 34
f 34 33 27
f 38 27 39
f 27 40 39
f 49 50 28
f 28 45 46
f 46 47 28
f 28 47 48
f 48 49 28
f 44 43 31
f 32 44 31
f 33 44 32
f 33 45 44
f 41 52 40
f 40 29 41
f 41 29 30
f 30 42 41
f 30 31 43
f 43 42 30
f 39 51 50
f 39 50 38
f 39 40 52
f 52 51 39
f 38 50 49
f 49 37 38
f 45 33 46
f 33 34 46
f 35 47 46
f 46 34 35
f 48 47 35
f 35 36 48
f 37 49 48
f 48 36 37
f 68 54 67
f 67 54 78
f 69 70 54
f 54 68 69
f 54 76 77
f 77 78 54
f 55 53 56
f 54 70 71
f 75 76 54
f 66 53 55
f 57 53 58
f 57 56 53
f 53 61 60
f 62 61 53
f 64 53 65
f 53 66 65
f 58 53 59
f 53 60 59
f 72 73 54
f 54 71 72
f 63 53 64
f 63 62 53
f 54 73 74
f 74 75 54
f 56 68 67
f 67 55 56
f 66 55 67
f 67 78 66
f 70 69 57
f 58 70 57
f 68 56 57
f 57 69 68
f 65 77 76
f 65 76 64
f 65 66 78
f 78 77 65
f 59 70 58
f 59 71 70
f 72 60 61
f 72 61 73
f 71 59 72
f 72 59 60
f 64 76 63
f 76 75 63
f 73 61 74
f 61 62 74
f 74 63 75
f 62 63 74
f 80 96 97
f 101 102 80
f 98 99 80
f 80 97 98
f 80 99 100
f 100 101 80
f 84 79 85
f 95 96 80
f 90 79 91
f 83 79 84
f 89 79 90
f 86 79 87
f 86 85 79
f 79 81 92
f 92 91 79
f 82 81 79
f 79 83 82
f 87 79 88
f 79 89 88
f 80 102 103
f 94 95 80
f 80 93 94
f 104 93 80
f 80 103 104
f 85 97 96
f 85 96 84
f 84 96 83
f 96 95 83
f 102 101 89
f 90 102 89
f 99 98 86
f 86 87 99
f 97 85 86
f 86 98 97
f 99 87 88
f 88 100 99
f 88 89 101
f 101 100 88
f 103 102 90
f 90 91 103
f 94 83 95
f 94 82 83
f 94 93 81
f 81 82 94
f 81 93 104
f 104 92 81
f 104 103 91
f 91 92 104
f 106 108 105
f 109 106 105
f 105 108 107
f 107 109 105
f 106 112 108
f 110 106 109
f 110 112 106
f 108 112 107
f 111 109 107
f 107 112 111
f 111 110 109
f 112 110 111

